<svg width="562" height="270" viewBox="0 0 562 270" fill="none" xmlns="http://www.w3.org/2000/svg">
<rect width="562" height="270" rx="30" fill="white"/>
<rect x="138" y="206" width="285" height="34" fill="#E4E4E4"/>
<rect x="264" y="30" width="34" height="34" fill="#E4E4E4"/>
<rect x="318" y="30" width="34" height="34" fill="#E4E4E4"/>
<rect x="210" y="30" width="34" height="34" fill="#E4E4E4"/>
<rect x="426" y="30" width="34" height="34" fill="#E4E4E4"/>
<rect x="480" y="30" width="34" height="34" fill="#E4E4E4"/>
<rect x="372" y="30" width="34" height="34" fill="#E4E4E4"/>
<rect x="102" y="30" width="34" height="34" fill="#E4E4E4"/>
<rect x="156" y="30" width="34" height="34" fill="#E4E4E4"/>
<rect x="48" y="30" width="34" height="34" fill="#E4E4E4"/>
<rect x="264" y="138" width="34" height="34" fill="#E4E4E4"/>
<rect x="318" y="138" width="34" height="34" fill="#E4E4E4"/>
<rect x="210" y="138" width="34" height="34" fill="#E4E4E4"/>
<rect x="426" y="138" width="34" height="34" fill="#E4E4E4"/>
<rect x="480" y="138" width="34" height="34" fill="#E4E4E4"/>
<rect x="372" y="138" width="34" height="34" fill="#E4E4E4"/>
<rect x="102" y="138" width="34" height="34" fill="#E4E4E4"/>
<rect x="156" y="138" width="34" height="34" fill="#E4E4E4"/>
<rect x="48" y="138" width="34" height="34" fill="#E4E4E4"/>
<rect x="264" y="84" width="34" height="34" fill="#E4E4E4"/>
<rect x="318" y="84" width="34" height="34" fill="#E4E4E4"/>
<rect x="210" y="84" width="34" height="34" fill="#E4E4E4"/>
<rect x="426" y="84" width="34" height="34" fill="#E4E4E4"/>
<rect x="480" y="84" width="34" height="34" fill="#E4E4E4"/>
<rect x="372" y="84" width="34" height="34" fill="#E4E4E4"/>
<rect x="102" y="84" width="34" height="34" fill="#E4E4E4"/>
<rect x="156" y="84" width="34" height="34" fill="#E4E4E4"/>
<rect x="48" y="84" width="34" height="34" fill="#E4E4E4"/>
</svg>
