<svg width="529" height="534" viewBox="0 0 529 534" fill="none" xmlns="http://www.w3.org/2000/svg">
<rect y="293" width="241" height="241" rx="14" fill="#4E689A"/>
<path d="M58 377.5C58 342.982 85.9822 315 120.5 315C155.018 315 183 342.982 183 377.5V482C183 498.569 169.569 512 153 512H88C71.4315 512 58 498.569 58 482V377.5Z" fill="white"/>
<path d="M73 360.5C73 348.074 83.0736 338 95.5 338H111V394H73V360.5Z" fill="#E4E4E4"/>
<path d="M169 360.5C169 348.074 158.926 338 146.5 338H131V394H169V360.5Z" fill="#E4E4E4"/>
<rect x="118" y="352" width="6" height="28" rx="3" fill="#E4E4E4"/>
<path d="M120.5 322.5V308.5C120.5 306.833 120.7 302.5 121.5 298.5C123.3 289.5 142.5 255.5 188.5 239C234.5 222.5 278.5 228.5 348.5 185.5C404.5 151.1 508.5 49.1667 553.5 2.5" stroke="white" stroke-width="7"/>
</svg>
