<svg width="557" height="535" viewBox="0 0 557 535" fill="none" xmlns="http://www.w3.org/2000/svg">
<rect y="293.5" width="241" height="241" rx="14" fill="#4E689A"/>
<path d="M58 378C58 343.482 85.9822 315.5 120.5 315.5C155.018 315.5 183 343.482 183 378V482.5C183 499.069 169.569 512.5 153 512.5H88C71.4315 512.5 58 499.069 58 482.5V378Z" fill="white"/>
<path d="M73 361C73 348.574 83.0736 338.5 95.5 338.5H111V394.5H73V361Z" fill="#E4E4E4"/>
<path d="M169 361C169 348.574 158.926 338.5 146.5 338.5H131V394.5H169V361Z" fill="#E4E4E4"/>
<rect x="118" y="352.5" width="6" height="28" rx="3" fill="#E4E4E4"/>
<path d="M120.5 323V309C120.5 307.333 120.7 303 121.5 299C123.3 290 142.5 256 188.5 239.5C234.5 223 278.5 229 348.5 186C404.5 151.6 508.5 49.6667 553.5 3" stroke="white" stroke-width="7"/>
</svg>
